<svg _ngcontent-wce-c1="" version="1.0" xmlns="http://www.w3.org/2000/svg" width="150px"
    height="150px" viewBox="0 0 1297.000000 1679.000000" preserveAspectRatio="xMidYMid meet"
    class="ng-tns-c1-0">
    <g _ngcontent-wce-c1="" transform="translate(0.000000,1679.000000) scale(0.100000,-0.100000)"
        fill="red" stroke="none" class="ng-tns-c1-0">
        <path _ngcontent-wce-c1=""
            d="M4895 14914 c-16 -2 -73 -9 -125 -15 -434 -49 -895 -244 -1255 -529
-103 -81 -304 -282 -385 -385 -283 -357 -467 -791 -530 -1249 l-12 -88 614
-617 c338 -339 2091 -2096 3896 -3906 l3282 -3290 0 874 0 874 -2577 2578
c-1417 1419 -2582 2579 -2587 2579 -19 0 -1206 1194 -1206 1213 0 46 88 175
199 290 139 143 174 169 327 246 202 101 231 110 384 121 180 13 2931 13 3111
0 151 -11 206 -29 408 -133 129 -66 168 -96 302 -234 125 -130 175 -208 263
-416 44 -103 47 -115 56 -245 6 -80 10 -715 10 -1537 l0 -1400 650 -650 650
-650 -3 2160 c-3 2373 1 2196 -63 2482 -76 339 -256 711 -484 998 -81 103
-282 304 -385 385 -291 231 -677 416 -1020 490 -267 57 -165 54 -1895 56 -877
1 -1608 0 -1625 -2z"
            class="ng-tns-c1-0"></path>
        <path _ngcontent-wce-c1=""
            d="M2591 11166 l-1 -879 2577 -2578 c1417 -1419 2582 -2579 2587 -2579
19 0 1206 -1194 1206 -1212 0 -47 -88 -175 -199 -291 -139 -143 -174 -169
-327 -246 -202 -101 -231 -110 -384 -121 -180 -13 -2931 -13 -3111 0 -151 11
-206 29 -408 133 -129 66 -168 96 -302 234 -125 130 -175 208 -263 416 -44
103 -47 115 -56 245 -6 80 -10 715 -10 1537 l0 1400 -650 650 -650 650 3
-2160 c3 -2373 -1 -2196 63 -2482 76 -339 256 -711 484 -998 81 -103 282 -304
385 -385 360 -286 797 -470 1260 -532 147 -19 3253 -19 3400 0 463 62 900 246
1260 532 103 81 304 282 385 385 277 350 458 767 525 1214 8 56 15 116 15 133
0 30 -64 97 -763 796 -419 419 -767 762 -772 762 -6 0 -1415 1407 -3132 3127
l-3122 3128 0 -879z"
            class="ng-tns-c1-0"></path>
    </g>
</svg>